<svg xmlns="http://www.w3.org/2000/svg" version="1.1" xmlns:xlink="http://www.w3.org/1999/xlink" xmlns:svgjs="http://svgjs.dev/svgjs" width="1000" height="1000" viewBox="0 0 1000 1000"><rect width="1000" height="1000" fill="#ff0000"></rect><g transform="matrix(0.7,0,0,0.7,150.0000000000001,106.25)"><svg viewBox="0 0 320 360" data-background-color="#ff0000" preserveAspectRatio="xMidYMid meet" height="1125" width="1000" xmlns="http://www.w3.org/2000/svg" xmlns:xlink="http://www.w3.org/1999/xlink"><g id="tight-bounds" transform="matrix(1,0,0,1,0,0)"><svg viewBox="0 0 320 360" height="360" width="320"><g><svg></svg></g><g><svg viewBox="0 0 320 360" height="360" width="320"><g><path xmlns="http://www.w3.org/2000/svg" d="M20.961 227.22l3.726 4.658-1.863-6.056c-0.466-2.795-3.726 0.466-1.863 1.398M25.153 224.425c1.397 2.329 2.795 4.658 2.795 6.987 0 3.261 2.795 4.658 5.123 5.589-3.261-3.726-5.124-13.974-7.918-12.576M204.017 26.929c7.918 0 15.371-0.932 23.756 0.931 20.495 5.124 37.729 15.371 49.374 29.811l32.606 52.169c1.397 13.042 4.192 27.482 3.726 43.319 3.261 0 2.795-4.658 6.521-5.59-3.726 9.316-5.59 20.961-6.521 34.469-2.329-7.453 0-18.632 0.466-24.687-3.261 5.124-5.124 1.397-5.124-0.932 0.466-3.726-1.397-3.261-2.795-4.658-5.124-4.658-8.384-9.782-12.11-17.7 2.329-6.055 2.795-14.905-4.658-19.563-2.329-1.397-5.124-3.726-6.521-7.453-1.863-5.124-5.124-11.179-4.193-19.097 0.466-2.329-6.987 5.124-11.179 1.863-18.166-12.576-36.332-27.016-58.224-39.127-11.645 0-20.029-4.192-24.221-9.316-3.726-4.658-0.932-10.713 4.658-11.179 3.261 0 6.987-0.932 9.782 0.932 0.466-1.863 2.329-4.192 4.657-4.192M157.904 16.215l0.932 0.466c4.658 0.932 6.987 7.453 12.11 5.124 0 3.261 0.466 6.521-0.466 8.85-1.397 3.726-5.59 3.726-8.85 3.726-31.208-1.863-49.374 11.179-68.471 22.358-5.124 3.261-10.713 5.59-14.906 9.782-20.029 18.632-41.921 35.866-47.045 70.335l-4.192 38.195c-0.466 4.192-5.124 8.384-4.192 13.508l3.26 22.824c-3.261-3.261-5.124 0.932-4.192 2.795 0.466 1.397 2.329 6.055 5.124 1.863 3.726 6.987 7.453 20.495 12.576 26.55 15.837 18.632 36.332 35.4 53.101 52.169 4.192-0.932 7.453-0.932 8.384-3.727 1.397 2.795-1.397 5.59-3.726 6.056 7.453 4.658 15.837 8.85 27.016 9.781 14.44 0.932 27.948 3.261 40.524 6.522 6.521-1.863 13.042-2.795 20.029-3.261 2.329 0 3.726-3.726 6.521-4.658l0.466-4.658c2.795 4.192 2.329-1.397 0.466-4.192 3.261 2.795 4.192 5.124 5.589 6.987 0-1.397 3.726-6.521 3.727-0.466l0.931-6.055c1.397-0.932 1.863 5.124 3.261 0.931 1.397-4.192 4.192-0.932 6.987-2.329-0.932 1.863-0.466 5.59 2.794 3.261l3.727-3.261c2.329 5.59 6.055 3.261 7.918 2.329 20.495-13.042 40.99-28.413 60.553-43.784l-0.466 6.055 2.329-7.453c2.329 2.329 4.192 0.466 5.124-0.931 2.795-4.658 6.521-9.316 12.577-13.508-7.453 20.029-16.303 35.866-27.482 48.908l-4.658 5.59c0 3.261-0.932 7.453-4.658 7.918-1.863 0.466-5.59-0.932-8.384 1.863-1.397 1.863 3.261 5.59-0.466 2.795-3.261-2.329-6.521 0-10.248 0.932-2.795 0.932 1.863 3.726 2.795 5.589 0.932 1.863 1.863 3.726 1.398 6.056l-5.124-5.59c-6.055 3.261-9.782 9.316-14.906 13.974-2.329 1.863-1.397 5.124-1.397 7.918-3.261 0-6.987-0.932-8.85 0.932-1.397 1.863-0.932 4.658-0.932 7.453-4.658-0.466-5.124-7.453-9.315-6.056-4.192 0.932-8.85 1.397-12.577 3.727 2.795 5.59-4.658 2.329-3.726 3.26-6.987-4.192-13.042-7.453-20.495-4.658-15.837-5.124-35.4-2.795-49.84-0.931 0-2.329 0.466-4.658-0.466-5.124-0.932 2.329-3.726 1.397-3.26 1.397-8.85-6.055-17.7-9.782-27.016-14.905-8.384 0.932-16.303-3.261-18.632-5.59-6.521-6.055-13.974-2.795-20.029-4.192-13.042-3.261-17.7-16.769-19.098-26.084-0.932-4.658-4.658-6.521-6.055-6.056-6.055-19.563-15.371-37.263-22.824-55.429-1.863-4.658-1.397-9.316-1.397-14.44 2.329 0.932 4.658 0.466 4.192-2.794-2.329-15.371-7.918-27.016-13.974-38.195 3.261-15.837 3.726-34.469 11.179-48.443 6.521-12.576 18.632-19.098 27.016-29.811 2.795-3.726 2.795-8.85 5.59-12.11 9.316-9.316 18.632-19.098 28.879-27.482 4.658-3.726 10.247 0 17.234-1.397 2.329-8.384 11.645-15.837 20.495-13.508 3.726 0.932 11.179-8.85 13.508-9.782 3.726-1.397 1.863 3.726 1.863 6.987 8.85-6.987 20.961-10.713 32.14-14.906" fill="#ffffff" fill-rule="nonzero" stroke="none" stroke-width="1" stroke-linecap="butt" stroke-linejoin="miter" stroke-miterlimit="10" stroke-dasharray="" stroke-dashoffset="0" font-family="none" font-weight="none" font-size="none" text-anchor="none" style="mix-blend-mode: normal" data-fill-palette-color="tertiary"></path></g><g transform="matrix(1,0,0,1,64,114.48882880066822)"><svg viewBox="0 0 192 131.02234239866357" height="131.02234239866357" width="192"><g><svg viewBox="0 0 192 131.02234239866357" height="131.02234239866357" width="192"><g><svg viewBox="0 0 192 131.02234239866357" height="131.02234239866357" width="192"><g transform="matrix(1,0,0,1,0,77.9818083718359)"><svg viewBox="0 0 192 53.04053402682766" height="53.04053402682766" width="192"><g id="textblocktransform"><svg viewBox="0 0 192 53.04053402682766" height="53.04053402682766" width="192" id="textblock"><g><svg viewBox="0 0 192 32.07005253940455" height="32.07005253940455" width="192"><g transform="matrix(1,0,0,1,0,0)"><svg width="192" viewBox="0.30000001192092896 -37.5 228.37998962402344 38.150001525878906" height="32.07005253940455" data-palette-color="#ffffff"><path d="M12.3-2L11.9 0 4.7 0 11.5-31.8 18.9-32.8 12.9-4.75Q13.6-4.25 14.3-4 15-3.75 15.75-3.75L15.75-3.75Q19.8-3.75 22.58-10.43 25.35-17.1 25.35-25.75L25.35-25.75Q25.35-30.45 23.5-32.83 21.65-35.2 18.05-35.2L18.05-35.2Q12.2-35.2 8.58-31.88 4.95-28.55 4.95-23.05L4.95-23.05Q4.95-22.1 5.08-21.4 5.2-20.7 5.5-20.05L5.5-20.05Q5.6-19.85 5.63-19.78 5.65-19.7 5.65-19.65L5.65-19.65Q2.95-19.65 1.63-20.8 0.3-21.95 0.3-24.3L0.3-24.3Q0.3-27.05 2.08-29.68 3.85-32.3 6.95-34.25L6.95-34.25Q9.5-35.8 12.58-36.65 15.65-37.5 18.9-37.5L18.9-37.5Q25.3-37.5 28.78-33.68 32.25-29.85 32.25-23.1L32.25-23.1Q32.25-19.45 31.4-15.7 30.55-11.95 29-8.7L29-8.7Q26.95-4.3 24.15-1.83 21.35 0.65 18.4 0.65L18.4 0.65Q16.9 0.65 15.38-0.03 13.85-0.7 12.3-2L12.3-2ZM51.5-20.65L51.5-20.65Q51.5-16.5 48.1-13.43 44.7-10.35 40-10.1L40-10.1Q39.95-9.25 39.92-8.83 39.9-8.4 39.9-8.1L39.9-8.1Q39.9-5.8 40.67-4.85 41.45-3.9 43.5-3.9L43.5-3.9Q45.85-3.9 47.82-4.98 49.8-6.05 52.35-8.95L52.35-8.95 54.05-8.95Q51.15-4.25 47.75-1.98 44.35 0.3 40.3 0.3L40.3 0.3Q36.45 0.3 34.47-1.7 32.5-3.7 32.5-7.65L32.5-7.65Q32.5-10.5 33.4-13.7 34.3-16.9 35.8-19.4L35.8-19.4Q37.65-22.4 40.22-23.93 42.8-25.45 46-25.45L46-25.45Q48.75-25.45 50.12-24.28 51.5-23.1 51.5-20.65ZM46.4-22.8L46.4-22.8Q44.7-22.8 42.97-19.78 41.25-16.75 40.4-12.5L40.4-12.5Q43.3-12.7 45.47-15.18 47.65-17.65 47.65-20.75L47.65-20.75Q47.65-21.8 47.35-22.3 47.05-22.8 46.4-22.8ZM67.84-20.75L67.84-20.75Q67.05-20.75 66.55-21.53 66.05-22.3 66.05-23.3L66.05-23.3Q66.05-24.55 66.87-25.28 67.7-26 69.15-26L69.15-26Q70.7-26 71.5-24.85 72.3-23.7 72.3-21.65L72.3-21.65Q72.3-18.25 71.42-14.53 70.55-10.8 69.05-7.75L69.05-7.75Q67.05-3.8 64.25-1.75 61.45 0.3 58.05 0.3L58.05 0.3Q55.1 0.3 53.5-1.23 51.9-2.75 51.9-5.6L51.9-5.6Q51.9-6.15 51.97-6.78 52.05-7.4 52.15-8L52.15-8 55.75-25 62.95-25 59.35-8Q59.25-7.45 59.17-6.98 59.1-6.5 59.1-6.2L59.1-6.2Q59.1-5.4 59.52-4.98 59.95-4.55 60.8-4.55L60.8-4.55Q62.55-4.55 64.22-6.38 65.9-8.2 67.25-11.55L67.25-11.55Q68.25-13.95 68.84-16.6 69.45-19.25 69.45-21.25L69.45-21.25Q69.34-21.05 68.82-20.9 68.3-20.75 67.84-20.75ZM85.34-2L84.94 0 77.74 0 84.54-31.8 91.94-32.8 85.94-4.75Q86.64-4.25 87.34-4 88.04-3.75 88.79-3.75L88.79-3.75Q92.84-3.75 95.62-10.43 98.39-17.1 98.39-25.75L98.39-25.75Q98.39-30.45 96.54-32.83 94.69-35.2 91.09-35.2L91.09-35.2Q85.24-35.2 81.62-31.88 77.99-28.55 77.99-23.05L77.99-23.05Q77.99-22.1 78.12-21.4 78.24-20.7 78.54-20.05L78.54-20.05Q78.64-19.85 78.67-19.78 78.69-19.7 78.69-19.65L78.69-19.65Q75.99-19.65 74.67-20.8 73.34-21.95 73.34-24.3L73.34-24.3Q73.34-27.05 75.12-29.68 76.89-32.3 79.99-34.25L79.99-34.25Q82.54-35.8 85.62-36.65 88.69-37.5 91.94-37.5L91.94-37.5Q98.34-37.5 101.82-33.68 105.29-29.85 105.29-23.1L105.29-23.1Q105.29-19.45 104.44-15.7 103.59-11.95 102.04-8.7L102.04-8.7Q99.99-4.3 97.19-1.83 94.39 0.65 91.44 0.65L91.44 0.65Q89.94 0.65 88.42-0.03 86.89-0.7 85.34-2L85.34-2ZM115.49-19L111.49 0 104.29 0 109.59-25 116.79-25 116.14-21.9Q118.34-23.75 119.62-24.38 120.89-25 122.19-25L122.19-25Q123.74-25 124.69-23.93 125.64-22.85 125.64-21.25L125.64-21.25Q125.64-19.7 124.64-18.65 123.64-17.6 122.04-17.6L122.04-17.6Q121.19-17.6 120.72-18 120.24-18.4 120.04-19.65L120.04-19.65Q119.89-20.45 119.69-20.68 119.49-20.9 119.14-20.9L119.14-20.9Q118.29-20.9 117.54-20.55 116.79-20.2 115.49-19L115.49-19ZM143.24-20.65L143.24-20.65Q143.24-16.5 139.84-13.43 136.44-10.35 131.74-10.1L131.74-10.1Q131.69-9.25 131.66-8.83 131.64-8.4 131.64-8.1L131.64-8.1Q131.64-5.8 132.41-4.85 133.19-3.9 135.24-3.9L135.24-3.9Q137.59-3.9 139.56-4.98 141.54-6.05 144.09-8.95L144.09-8.95 145.79-8.95Q142.89-4.25 139.49-1.98 136.09 0.3 132.04 0.3L132.04 0.3Q128.19 0.3 126.21-1.7 124.24-3.7 124.24-7.65L124.24-7.65Q124.24-10.5 125.14-13.7 126.04-16.9 127.54-19.4L127.54-19.4Q129.39-22.4 131.96-23.93 134.54-25.45 137.74-25.45L137.74-25.45Q140.49-25.45 141.86-24.28 143.24-23.1 143.24-20.65ZM138.14-22.8L138.14-22.8Q136.44-22.8 134.71-19.78 132.99-16.75 132.14-12.5L132.14-12.5Q135.04-12.7 137.21-15.18 139.39-17.65 139.39-20.75L139.39-20.75Q139.39-21.8 139.09-22.3 138.79-22.8 138.14-22.8ZM160.84-22.7L160.84-22.7 160.84-22.35 161.39-25 168.59-25 164.99-8Q164.89-7.55 164.84-7.18 164.79-6.8 164.79-6.4L164.79-6.4Q164.79-5.3 165.29-4.78 165.79-4.25 166.84-4.25L166.84-4.25Q168.14-4.25 169.19-5.48 170.24-6.7 170.89-8.95L170.89-8.95 172.99-8.95Q171.39-4.35 168.84-2.02 166.29 0.3 162.94 0.3L162.94 0.3Q160.79 0.3 159.51-0.9 158.24-2.1 158.04-4.3L158.04-4.3Q156.49-2 154.61-0.85 152.74 0.3 150.59 0.3L150.59 0.3Q147.49 0.3 145.71-1.8 143.94-3.9 143.94-7.75L143.94-7.75Q143.94-10.55 144.79-13.6 145.64-16.65 147.14-19.15L147.14-19.15Q148.99-22.1 151.44-23.68 153.89-25.25 156.79-25.25L156.79-25.25Q158.74-25.25 159.79-24.58 160.84-23.9 160.84-22.7ZM157.99-8.95L160.39-20.25Q160.39-21 159.84-21.58 159.29-22.15 158.34-22.15L158.34-22.15Q155.59-22.15 153.46-17.55 151.34-12.95 151.34-8.45L151.34-8.45Q151.34-6.5 151.89-5.53 152.44-4.55 153.84-4.55L153.84-4.55Q155.14-4.55 156.36-5.8 157.59-7.05 157.99-8.95L157.99-8.95ZM195.38-5.35L195.38-5.35Q195.38-6.25 195.61-7.6 195.83-8.95 196.53-11.9L196.53-11.9Q197.23-14.75 197.43-16 197.63-17.25 197.63-18.1L197.63-18.1Q197.63-19.35 197.18-20 196.73-20.65 195.83-20.65L195.83-20.65Q194.63-20.65 193.61-19.43 192.58-18.2 191.93-16.05L191.93-16.05 188.53 0 181.33 0 184.98-17.25Q185.08-17.55 185.11-17.85 185.13-18.15 185.13-18.5L185.13-18.5Q185.13-19.5 184.73-20.1 184.33-20.7 183.63-20.7L183.63-20.7Q182.33-20.7 181.28-19.48 180.23-18.25 179.58-16.05L179.58-16.05 176.18 0 168.98 0 174.28-25 181.48-25 180.93-22.4Q182.18-23.85 183.68-24.55 185.18-25.25 187.03-25.25L187.03-25.25Q189.23-25.25 190.51-24.18 191.78-23.1 192.18-20.95L192.18-20.95Q193.58-23.1 195.28-24.15 196.98-25.2 199.13-25.2L199.13-25.2Q201.78-25.2 203.23-23.75 204.68-22.3 204.68-19.55L204.68-19.55Q204.68-18.4 204.41-16.82 204.13-15.25 203.33-12L203.33-12Q202.68-9.45 202.48-8.4 202.28-7.35 202.28-6.65L202.28-6.65Q202.28-5.6 202.78-5.08 203.28-4.55 204.28-4.55L204.28-4.55Q205.53-4.55 206.43-5.4 207.33-6.25 208.48-8.95L208.48-8.95 210.58-8.95Q208.98-4.3 206.71-2 204.43 0.3 201.28 0.3L201.28 0.3Q198.48 0.3 196.93-1.23 195.38-2.75 195.38-5.35ZM223.18-8.35L223.18-8.35Q223.18-7.75 223.13-7.3 223.08-6.85 222.98-6.45L222.98-6.45Q223.98-7.05 224.93-7.7 225.88-8.35 226.58-8.95L226.58-8.95 228.68-8.95Q227.13-7.15 225.26-5.63 223.38-4.1 221.03-2.7L221.03-2.7Q219.68-1.25 217.58-0.48 215.48 0.3 213.18 0.3L213.18 0.3Q209.83 0.3 207.86-1.53 205.88-3.35 205.88-6.1L205.88-6.1Q205.88-7.65 206.63-8.93 207.38-10.2 208.53-10.75L208.53-10.75Q210.23-13.8 211.71-17.28 213.18-20.75 214.68-25.55L214.68-25.55 222.08-26.55Q222.23-22.8 222.43-19.7 222.63-16.6 222.93-12.95L222.93-12.95Q223.08-10.85 223.13-10 223.18-9.15 223.18-8.35ZM214.98-20.15L214.98-20.15Q214.33-18.1 213.41-15.88 212.48-13.65 210.93-10.7L210.93-10.7Q211.48-10.45 211.78-10 212.08-9.55 212.08-8.95L212.08-8.95Q212.08-8 211.43-7.25 210.78-6.5 209.88-6.5L209.88-6.5Q209.38-6.5 209.03-6.68 208.68-6.85 208.53-7.15L208.53-7.15Q208.53-5.3 209.26-4.48 209.98-3.65 211.58-3.65L211.58-3.65Q213.63-3.65 214.78-4.85 215.93-6.05 215.93-8.3L215.93-8.3Q215.93-9 215.88-9.73 215.83-10.45 215.68-12.15L215.68-12.15Q215.43-14.5 215.28-16.3 215.13-18.1 214.98-20.15Z" opacity="1" transform="matrix(1,0,0,1,0,0)" fill="#ffffff" class="undefined-text-0" data-fill-palette-color="primary" id="text-0"></path></svg></g></svg></g><g transform="matrix(1,0,0,1,0,36.74984288616462)"><svg viewBox="0 0 192 16.290691140663043" height="16.290691140663043" width="192"><g transform="matrix(1,0,0,1,0,0)"><svg width="192" viewBox="4.650000095367432 -35 533.8399658203125 45.29999923706055" height="16.290691140663043" data-palette-color="#ffffff"><path d="M16.65-34.95L16.65-34.95Q20.25-34.95 22.75-34.02 25.25-33.1 26.8-31.05 28.35-29 29.05-25.6 29.75-22.2 29.75-17.25L29.75-17.25Q29.75-12.3 29.05-8.9 28.35-5.5 26.8-3.45 25.25-1.4 22.75-0.48 20.25 0.45 16.65 0.45L16.65 0.45Q13.15 0.45 10.2 0.33 7.25 0.2 4.65 0L4.65 0 6.1-2.6Q8.3-2.55 10.88-2.5 13.45-2.45 16.65-2.45L16.65-2.45Q20.25-2.45 22.38-3.83 24.5-5.2 25.43-8.45 26.35-11.7 26.35-17.25L26.35-17.25Q26.35-22.8 25.43-26.05 24.5-29.3 22.38-30.7 20.25-32.1 16.65-32.1L16.65-32.1Q13.5-32.1 10.95-32.05 8.4-32 6.05-31.9L6.05-31.9 4.65-34.5Q7.25-34.7 10.23-34.83 13.2-34.95 16.65-34.95ZM4.65-34.5L7.9-34.5 7.9 0 4.65 0 4.65-34.5ZM46.95-24.85L46.95-24.85Q52.15-24.85 54.57-22.95 57-21.05 57.05-17.3L57.05-17.3Q57.1-14.05 55.8-12.3 54.5-10.55 51.45-10.55L51.45-10.55 37.4-10.55 37.4-13.05 50.75-13.05Q52.6-13.05 53.25-14.25 53.9-15.45 53.85-17.25L53.85-17.25Q53.8-19.85 52.2-20.98 50.6-22.1 47.1-22.1L47.1-22.1Q44.2-22.1 42.5-21.2 40.8-20.3 40.1-18.18 39.4-16.05 39.4-12.4L39.4-12.4Q39.4-8.35 40.25-6.13 41.1-3.9 42.95-3.03 44.8-2.15 47.8-2.15L47.8-2.15Q49.9-2.15 52.17-2.33 54.45-2.5 56.15-2.75L56.15-2.75 56.5-0.6Q55.45-0.2 53.82 0.05 52.2 0.3 50.47 0.45 48.75 0.6 47.4 0.6L47.4 0.6Q43.3 0.6 40.82-0.68 38.35-1.95 37.2-4.78 36.05-7.6 36.05-12.2L36.05-12.2Q36.05-16.95 37.17-19.7 38.3-22.45 40.7-23.65 43.1-24.85 46.95-24.85ZM71.75-24.85L71.75-24.85Q73.3-24.85 75.02-24.75 76.75-24.65 78.45-24.5 80.15-24.35 81.65-24.15L81.65-24.15 81.34-21.8Q79.09-21.95 76.75-22.03 74.4-22.1 72.15-22.1L72.15-22.1Q69.75-22.15 68.32-21.98 66.9-21.8 66.22-20.98 65.55-20.15 65.55-18.25L65.55-18.25Q65.55-16.1 66.5-15.33 67.45-14.55 69.3-14.2L69.3-14.2 76.75-12.8Q79.55-12.25 80.92-10.8 82.3-9.35 82.3-6.35L82.3-6.35Q82.3-3.3 81.2-1.85 80.09-0.4 77.84 0.08 75.59 0.55 72.25 0.55L72.25 0.55Q70.8 0.55 68.37 0.45 65.95 0.35 63-0.1L63-0.1 63.25-2.4Q64.59-2.35 65.95-2.27 67.3-2.2 68.72-2.18 70.15-2.15 71.7-2.15L71.7-2.15Q74.55-2.2 76.2-2.48 77.84-2.75 78.55-3.65 79.25-4.55 79.25-6.35L79.25-6.35Q79.25-8.45 78.12-9.2 77-9.95 75.25-10.3L75.25-10.3 67.84-11.65Q66-12.05 64.8-12.83 63.6-13.6 63.02-14.93 62.45-16.25 62.45-18.25L62.45-18.25Q62.45-21.15 63.45-22.58 64.45-24 66.5-24.45 68.55-24.9 71.75-24.85ZM89.39-24.25L92.49-24.25 92.49 0 89.39 0 89.39-24.25ZM90.19-34.45L91.69-34.45Q92.74-34.45 92.74-33.4L92.74-33.4 92.74-30.45Q92.74-29.4 91.69-29.4L91.69-29.4 90.19-29.4Q89.14-29.4 89.14-30.45L89.14-30.45 89.14-33.4Q89.14-34.45 90.19-34.45L90.19-34.45ZM110.39-24.85L110.39-24.85Q114.14-24.85 116.34-24.03 118.54-23.2 119.52-21.53 120.49-19.85 120.49-17.2L120.49-17.2Q120.49-14.6 119.52-12.9 118.54-11.2 116.32-10.38 114.09-9.55 110.39-9.55L110.39-9.55Q106.64-9.55 104.42-10.38 102.19-11.2 101.22-12.88 100.24-14.55 100.24-17.15L100.24-17.15Q100.24-19.8 101.22-21.5 102.19-23.2 104.42-24.03 106.64-24.85 110.39-24.85ZM110.39-22.35L110.39-22.35Q106.39-22.35 104.79-21.13 103.19-19.9 103.19-17.2L103.19-17.2Q103.19-14.5 104.79-13.28 106.39-12.05 110.39-12.05L110.39-12.05Q114.39-12.05 115.94-13.28 117.49-14.5 117.49-17.2L117.49-17.2Q117.49-19.9 115.94-21.13 114.39-22.35 110.39-22.35ZM115.29-24.25L123.34-24.25 123.14-22.4 117.04-22 115.29-24.25ZM103.59-11.2L103.59-11.2 105.54-10.95Q104.49-10 104.14-8.78 103.79-7.55 104.37-6.55 104.94-5.55 106.79-5.25L106.79-5.25 116.09-3.7Q119.39-3.2 120.64-1.6 121.89 0 121.89 2.95L121.89 2.95Q121.89 5.7 120.82 7.3 119.74 8.9 117.27 9.6 114.79 10.3 110.64 10.3L110.64 10.3Q107.44 10.3 105.27 9.93 103.09 9.55 101.74 8.7 100.39 7.85 99.82 6.48 99.24 5.1 99.24 3.05L99.24 3.05Q99.24 1.4 99.62 0.28 99.99-0.85 100.92-1.73 101.84-2.6 103.39-3.4L103.39-3.4 106.04-4.85 107.74-4.3 105.29-2.55Q104.19-1.8 103.54-1.05 102.89-0.3 102.62 0.6 102.34 1.5 102.34 2.85L102.34 2.85Q102.34 4.65 103.09 5.7 103.84 6.75 105.67 7.15 107.49 7.55 110.64 7.55L110.64 7.55Q113.74 7.55 115.52 7.13 117.29 6.7 118.04 5.68 118.79 4.65 118.79 2.85L118.79 2.85Q118.79 1.45 118.47 0.65 118.14-0.15 117.22-0.6 116.29-1.05 114.54-1.3L114.54-1.3 105.34-2.7Q103.79-2.95 102.87-3.7 101.94-4.45 101.57-5.5 101.19-6.55 101.34-7.63 101.49-8.7 102.07-9.68 102.64-10.65 103.59-11.2ZM142.79-24.85L142.79-24.85Q149.34-24.85 149.34-18.2L149.34-18.2 149.34 0 146.19 0 146.19-17.35Q146.19-19.95 145.19-21.03 144.19-22.1 141.99-22.1L141.99-22.1Q139.54-22.1 137.19-20.95 134.84-19.8 131.59-17.7L131.59-17.7 131.44-20.05Q134.39-22.35 137.21-23.6 140.04-24.85 142.79-24.85ZM128.74-24.25L131.39-24.25 131.64-19.65 131.89-18.9 131.89 0 128.74 0 128.74-24.25ZM158.44-5.35L159.44-5.35Q160.09-5.35 160.36-5.05 160.64-4.75 160.64-4.1L160.64-4.1 160.64-0.9Q160.64 0.35 160.44 1.6 160.24 2.85 159.94 4.05 159.64 5.25 159.19 6.35L159.19 6.35 157.69 5.85Q157.89 4.35 157.99 3.1 158.09 1.85 158.09 0L158.09 0Q157.14 0 157.19-1.1L157.19-1.1 157.19-4.1Q157.19-4.75 157.51-5.05 157.84-5.35 158.44-5.35L158.44-5.35ZM192.33-34.95L192.33-34.95Q195.93-34.95 198.43-34.02 200.93-33.1 202.48-31.05 204.03-29 204.73-25.6 205.43-22.2 205.43-17.25L205.43-17.25Q205.43-12.3 204.73-8.9 204.03-5.5 202.48-3.45 200.93-1.4 198.43-0.48 195.93 0.45 192.33 0.45L192.33 0.45Q188.83 0.45 185.88 0.33 182.93 0.2 180.33 0L180.33 0 181.78-2.6Q183.98-2.55 186.56-2.5 189.13-2.45 192.33-2.45L192.33-2.45Q195.93-2.45 198.06-3.83 200.18-5.2 201.11-8.45 202.03-11.7 202.03-17.25L202.03-17.25Q202.03-22.8 201.11-26.05 200.18-29.3 198.06-30.7 195.93-32.1 192.33-32.1L192.33-32.1Q189.18-32.1 186.63-32.05 184.08-32 181.73-31.9L181.73-31.9 180.33-34.5Q182.93-34.7 185.91-34.83 188.88-34.95 192.33-34.95ZM180.33-34.5L183.58-34.5 183.58 0 180.33 0 180.33-34.5ZM222.63-24.85L222.63-24.85Q227.83-24.85 230.25-22.95 232.68-21.05 232.73-17.3L232.73-17.3Q232.78-14.05 231.48-12.3 230.18-10.55 227.13-10.55L227.13-10.55 213.08-10.55 213.08-13.05 226.43-13.05Q228.28-13.05 228.93-14.25 229.58-15.45 229.53-17.25L229.53-17.25Q229.48-19.85 227.88-20.98 226.28-22.1 222.78-22.1L222.78-22.1Q219.88-22.1 218.18-21.2 216.48-20.3 215.78-18.18 215.08-16.05 215.08-12.4L215.08-12.4Q215.08-8.35 215.93-6.13 216.78-3.9 218.63-3.03 220.48-2.15 223.48-2.15L223.48-2.15Q225.58-2.15 227.85-2.33 230.13-2.5 231.83-2.75L231.83-2.75 232.18-0.6Q231.13-0.2 229.5 0.05 227.88 0.3 226.15 0.45 224.43 0.6 223.08 0.6L223.08 0.6Q218.98 0.6 216.5-0.68 214.03-1.95 212.88-4.78 211.73-7.6 211.73-12.2L211.73-12.2Q211.73-16.95 212.85-19.7 213.98-22.45 216.38-23.65 218.78-24.85 222.63-24.85ZM256.93-24.25L260.28-24.25 251.03-0.8Q250.88-0.45 250.58-0.23 250.28 0 249.83 0L249.83 0 246.88 0Q246.48 0 246.15-0.23 245.83-0.45 245.68-0.8L245.68-0.8 236.43-24.25 239.83-24.25 246.43-6.7Q246.88-5.65 247.25-4.53 247.63-3.4 248.03-2.35L248.03-2.35 248.68-2.35Q249.13-3.45 249.53-4.55 249.93-5.65 250.33-6.75L250.33-6.75 256.93-24.25ZM274.97-24.85L274.97-24.85Q280.17-24.85 282.6-22.95 285.02-21.05 285.07-17.3L285.07-17.3Q285.12-14.05 283.82-12.3 282.52-10.55 279.47-10.55L279.47-10.55 265.42-10.55 265.42-13.05 278.77-13.05Q280.62-13.05 281.27-14.25 281.92-15.45 281.87-17.25L281.87-17.25Q281.82-19.85 280.22-20.98 278.62-22.1 275.12-22.1L275.12-22.1Q272.22-22.1 270.52-21.2 268.82-20.3 268.12-18.18 267.42-16.05 267.42-12.4L267.42-12.4Q267.42-8.35 268.27-6.13 269.12-3.9 270.97-3.03 272.82-2.15 275.82-2.15L275.82-2.15Q277.92-2.15 280.2-2.33 282.47-2.5 284.17-2.75L284.17-2.75 284.52-0.6Q283.47-0.2 281.85 0.05 280.22 0.3 278.5 0.45 276.77 0.6 275.42 0.6L275.42 0.6Q271.32 0.6 268.85-0.68 266.37-1.95 265.22-4.78 264.07-7.6 264.07-12.2L264.07-12.2Q264.07-16.95 265.2-19.7 266.32-22.45 268.72-23.65 271.12-24.85 274.97-24.85ZM292.02-35L295.17-35 295.12-6.05Q295.12-4.3 296.07-3.4 297.02-2.5 298.72-2.5L298.72-2.5 301.27-2.5 301.62-0.15Q301.22 0.05 300.5 0.18 299.77 0.3 298.97 0.35 298.17 0.4 297.62 0.4L297.62 0.4Q295.07 0.4 293.55-1.1 292.02-2.6 292.02-5.4L292.02-5.4 292.02-35ZM316.27-24.85L316.27-24.85Q320.32-24.85 322.77-23.6 325.22-22.35 326.29-19.55 327.37-16.75 327.37-12.1L327.37-12.1Q327.37-7.45 326.29-4.65 325.22-1.85 322.77-0.6 320.32 0.65 316.27 0.65L316.27 0.65Q312.22 0.65 309.77-0.6 307.32-1.85 306.22-4.65 305.12-7.45 305.12-12.1L305.12-12.1Q305.12-16.75 306.22-19.55 307.32-22.35 309.77-23.6 312.22-24.85 316.27-24.85ZM316.27-22.1L316.27-22.1Q313.32-22.1 311.62-21.2 309.92-20.3 309.19-18.13 308.47-15.95 308.47-12.1L308.47-12.1Q308.47-8.3 309.19-6.1 309.92-3.9 311.62-3 313.32-2.1 316.27-2.1L316.27-2.1Q319.17-2.1 320.89-3 322.62-3.9 323.34-6.1 324.07-8.3 324.07-12.1L324.07-12.1Q324.07-15.95 323.34-18.13 322.62-20.3 320.89-21.2 319.17-22.1 316.27-22.1ZM347.47-24.85L347.47-24.85Q352.07-24.85 354.02-21.7 355.97-18.55 355.97-12.05L355.97-12.05Q355.97-7.4 355.02-4.63 354.07-1.85 352.07-0.63 350.07 0.6 346.92 0.6L346.92 0.6Q344.52 0.6 342.14-0.08 339.77-0.75 337.42-2.05L337.42-2.05 337.57-4.05Q340.17-3.2 342.14-2.7 344.12-2.2 346.27-2.2L346.27-2.2Q348.62-2.2 350.02-3.08 351.42-3.95 352.07-6.1 352.72-8.25 352.72-12.05L352.72-12.05Q352.72-15.75 352.09-17.93 351.47-20.1 350.14-21.08 348.82-22.05 346.57-22.05L346.57-22.05Q344.47-22.05 342.39-21 340.32-19.95 337.52-17.75L337.52-17.75 337.32-20.05Q338.82-21.55 340.49-22.63 342.17-23.7 343.97-24.28 345.77-24.85 347.47-24.85ZM334.57-24.25L337.17-24.25 337.52-19.4 337.72-18.95 337.72-2.95 337.57-2.35Q337.72-0.95 337.72 0.25 337.72 1.45 337.72 2.85L337.72 2.85 337.72 10.2 334.57 10.2 334.57-24.25ZM364.06-5.35L365.06-5.35Q365.71-5.35 365.99-5.05 366.26-4.75 366.26-4.1L366.26-4.1 366.26-0.9Q366.26 0.35 366.06 1.6 365.86 2.85 365.56 4.05 365.26 5.25 364.81 6.35L364.81 6.35 363.31 5.85Q363.51 4.35 363.61 3.1 363.71 1.85 363.71 0L363.71 0Q362.76 0 362.81-1.1L362.81-1.1 362.81-4.1Q362.81-4.75 363.14-5.05 363.46-5.35 364.06-5.35L364.06-5.35ZM397.96-34.95L397.96-34.95Q401.56-34.95 404.06-34.02 406.56-33.1 408.11-31.05 409.66-29 410.36-25.6 411.06-22.2 411.06-17.25L411.06-17.25Q411.06-12.3 410.36-8.9 409.66-5.5 408.11-3.45 406.56-1.4 404.06-0.48 401.56 0.45 397.96 0.45L397.96 0.45Q394.46 0.45 391.51 0.33 388.56 0.2 385.96 0L385.96 0 387.41-2.6Q389.61-2.55 392.18-2.5 394.76-2.45 397.96-2.45L397.96-2.45Q401.56-2.45 403.68-3.83 405.81-5.2 406.73-8.45 407.66-11.7 407.66-17.25L407.66-17.25Q407.66-22.8 406.73-26.05 405.81-29.3 403.68-30.7 401.56-32.1 397.96-32.1L397.96-32.1Q394.81-32.1 392.26-32.05 389.71-32 387.36-31.9L387.36-31.9 385.96-34.5Q388.56-34.7 391.53-34.83 394.51-34.95 397.96-34.95ZM385.96-34.5L389.21-34.5 389.21 0 385.96 0 385.96-34.5ZM428.26-24.85L428.26-24.85Q433.46-24.85 435.88-22.95 438.31-21.05 438.36-17.3L438.36-17.3Q438.41-14.05 437.11-12.3 435.81-10.55 432.76-10.55L432.76-10.55 418.71-10.55 418.71-13.05 432.06-13.05Q433.91-13.05 434.56-14.25 435.21-15.45 435.16-17.25L435.16-17.25Q435.11-19.85 433.51-20.98 431.91-22.1 428.41-22.1L428.41-22.1Q425.51-22.1 423.81-21.2 422.11-20.3 421.41-18.18 420.71-16.05 420.71-12.4L420.71-12.4Q420.71-8.35 421.56-6.13 422.41-3.9 424.26-3.03 426.11-2.15 429.11-2.15L429.11-2.15Q431.21-2.15 433.48-2.33 435.76-2.5 437.46-2.75L437.46-2.75 437.81-0.6Q436.76-0.2 435.13 0.05 433.51 0.3 431.78 0.45 430.06 0.6 428.71 0.6L428.71 0.6Q424.61 0.6 422.13-0.68 419.66-1.95 418.51-4.78 417.36-7.6 417.36-12.2L417.36-12.2Q417.36-16.95 418.48-19.7 419.61-22.45 422.01-23.65 424.41-24.85 428.26-24.85ZM445.3-35L448.45-35 448.4-6.05Q448.4-4.3 449.35-3.4 450.3-2.5 452-2.5L452-2.5 454.55-2.5 454.9-0.15Q454.5 0.05 453.78 0.18 453.05 0.3 452.25 0.35 451.45 0.4 450.9 0.4L450.9 0.4Q448.35 0.4 446.83-1.1 445.3-2.6 445.3-5.4L445.3-5.4 445.3-35ZM459.8-24.25L462.9-24.25 462.9 0 459.8 0 459.8-24.25ZM460.6-34.45L462.1-34.45Q463.15-34.45 463.15-33.4L463.15-33.4 463.15-30.45Q463.15-29.4 462.1-29.4L462.1-29.4 460.6-29.4Q459.55-29.4 459.55-30.45L459.55-30.45 459.55-33.4Q459.55-34.45 460.6-34.45L460.6-34.45ZM488.9-24.25L492.25-24.25 483-0.8Q482.85-0.45 482.55-0.23 482.25 0 481.8 0L481.8 0 478.85 0Q478.45 0 478.12-0.23 477.8-0.45 477.65-0.8L477.65-0.8 468.4-24.25 471.8-24.25 478.4-6.7Q478.85-5.65 479.22-4.53 479.6-3.4 480-2.35L480-2.35 480.65-2.35Q481.1-3.45 481.5-4.55 481.9-5.65 482.3-6.75L482.3-6.75 488.9-24.25ZM506.95-24.85L506.95-24.85Q512.15-24.85 514.57-22.95 517-21.05 517.05-17.3L517.05-17.3Q517.1-14.05 515.8-12.3 514.5-10.55 511.45-10.55L511.45-10.55 497.4-10.55 497.4-13.05 510.75-13.05Q512.6-13.05 513.25-14.25 513.9-15.45 513.85-17.25L513.85-17.25Q513.8-19.85 512.2-20.98 510.6-22.1 507.1-22.1L507.1-22.1Q504.2-22.1 502.5-21.2 500.8-20.3 500.1-18.18 499.4-16.05 499.4-12.4L499.4-12.4Q499.4-8.35 500.25-6.13 501.1-3.9 502.95-3.03 504.8-2.15 507.8-2.15L507.8-2.15Q509.9-2.15 512.17-2.33 514.45-2.5 516.15-2.75L516.15-2.75 516.5-0.6Q515.45-0.2 513.82 0.05 512.2 0.3 510.47 0.45 508.75 0.6 507.4 0.6L507.4 0.6Q503.3 0.6 500.82-0.68 498.35-1.95 497.2-4.78 496.05-7.6 496.05-12.2L496.05-12.2Q496.05-16.95 497.17-19.7 498.3-22.45 500.7-23.65 503.1-24.85 506.95-24.85ZM523.94-24.25L526.39-24.25 526.79-19.65 527.09-18.9 527.09 0 523.94 0 523.94-24.25ZM537.44-24.85L538.49-24.85 538.09-21.85 536.89-21.85Q534.54-21.85 532.27-20.83 529.99-19.8 526.79-17.9L526.79-17.9 526.54-20Q529.34-22.25 532.09-23.55 534.84-24.85 537.44-24.85L537.44-24.85Z" opacity="1" transform="matrix(1,0,0,1,0,0)" fill="#ffffff" class="undefined-text-1" data-fill-palette-color="secondary" id="text-1"></path></svg></g></svg></g></svg></g></svg></g><g transform="matrix(1,0,0,1,56.4984851521072,0)"><svg viewBox="0 0 79.0030296957856 73.30201802507582" height="73.30201802507582" width="79.0030296957856"><g><svg xmlns="http://www.w3.org/2000/svg" xmlns:xlink="http://www.w3.org/1999/xlink" version="1.1" x="0" y="0" viewBox="2.200000047683716 5.698680877685547 95.60000610351562 88.70132446289062" enable-background="new 0 0 100 100" xml:space="preserve" height="73.30201802507582" width="79.0030296957856" class="icon-icon-0" data-fill-palette-color="accent" id="icon-0"><path d="M97.8 82.2V18c0-6.8-5.5-12.3-12.3-12.3H14.5C7.7 5.6 2.2 11.2 2.2 18v64.3c0 6.7 5.4 12.1 12.1 12.1h71.3C92.4 94.4 97.8 88.9 97.8 82.2zM38.6 13.7c2.2 0 3.9 1.8 3.9 3.9s-1.8 3.9-3.9 3.9c-2.2 0-3.9-1.8-3.9-3.9S36.4 13.7 38.6 13.7zM27.2 13.7L27.2 13.7c1.9 0 3.5 1.3 3.8 3.1 0.1 0.3 0.1 0.5 0.1 0.8s0 0.5-0.1 0.8c-0.4 1.8-1.9 3.1-3.8 3.1h0c-2.2 0-3.9-1.8-3.9-3.9S25 13.7 27.2 13.7zM15.7 13.7c2.2 0 3.9 1.8 3.9 3.9s-1.8 3.9-3.9 3.9-3.9-1.8-3.9-3.9S13.5 13.7 15.7 13.7zM15.8 86.4c-3.1 0-5.6-2.5-5.6-5.6V29h79.6v51.8c0 3.1-2.5 5.6-5.6 5.6H15.8zM17 36.4h66V54H17V36.4zM40.9 79.4h18.1V61H40.9V79.4zM46 66.1H54v8.3H46V66.1zM64.9 79.4H83V61H64.9V79.4zM70 66.1h7.9v8.3H70V66.1zM17 79.4h18.1V61H17V79.4zM22.1 66.1H30v8.3h-7.9V66.1z" fill="#ffffff" data-fill-palette-color="accent"></path></svg></g></svg></g><g></g></svg></g></svg></g></svg></g></svg></g><defs></defs></svg><rect width="320" height="360" fill="none" stroke="none" visibility="hidden"></rect></g></svg></g></svg>